<?xml version="1.0" encoding="utf-8"?>
<!-- Generator: Adobe Illustrator 16.0.0, SVG Export Plug-In . SVG Version: 6.00 Build 0)  -->
<!DOCTYPE svg PUBLIC "-//W3C//DTD SVG 1.1//EN" "http://www.w3.org/Graphics/SVG/1.1/DTD/svg11.dtd">
<svg version="1.1" id="Layer_1" xmlns="http://www.w3.org/2000/svg" xmlns:xlink="http://www.w3.org/1999/xlink" x="0px" y="0px"
	 width="960px" height="560px" viewBox="0 0 960 560" enable-background="new 0 0 960 560" xml:space="preserve">
<g>
	<path d="M31.561,307.308l13.078-1.142c0.62,5.24,2.06,9.543,4.323,12.899c2.262,3.359,5.776,6.076,10.542,8.146
		c4.762,2.074,10.123,3.111,16.077,3.111c5.292,0,9.96-0.788,14.008-2.358c4.048-1.575,7.064-3.728,9.041-6.468
		c1.975-2.739,2.966-5.729,2.966-8.971c0-3.287-0.953-6.154-2.86-8.609s-5.051-4.516-9.431-6.184
		c-2.813-1.096-9.032-2.795-18.653-5.111c-9.625-2.311-16.367-4.485-20.224-6.537c-5-2.617-8.733-5.872-11.184-9.756
		c-2.455-3.88-3.681-8.227-3.681-13.04c0-5.29,1.501-10.231,4.502-14.829c3.002-4.597,7.381-8.085,13.149-10.468
		c5.763-2.383,12.173-3.573,19.222-3.573c7.765,0,14.615,1.249,20.544,3.75c5.935,2.501,10.494,6.183,13.687,11.042
		c3.192,4.86,4.905,10.362,5.145,16.507l-13.291,1c-0.715-6.623-3.134-11.623-7.255-15.006c-4.12-3.384-10.208-5.075-18.258-5.075
		c-8.384,0-14.496,1.54-18.328,4.611c-3.838,3.074-5.754,6.778-5.754,11.112c0,3.762,1.359,6.857,4.073,9.289
		c2.668,2.429,9.637,4.919,20.903,7.467c11.266,2.547,18.999,4.777,23.189,6.683c6.099,2.813,10.6,6.368,13.506,10.684
		c2.907,4.31,4.362,9.278,4.362,14.9c0,5.572-1.599,10.824-4.789,15.757c-3.193,4.93-7.78,8.766-13.757,11.505
		c-5.982,2.74-12.71,4.107-20.19,4.107c-9.479,0-17.425-1.383-23.83-4.146c-6.411-2.763-11.436-6.919-15.081-12.467
		C33.669,320.593,31.753,314.313,31.561,307.308z"/>
	<path d="M158.355,340.969v-92.399H123.84v-12.366h83.039v12.366h-34.661v92.399H158.355z"/>
	<path d="M219.12,340.969V236.204h46.451c9.334,0,16.436,0.941,21.295,2.826c4.86,1.88,8.738,5.203,11.648,9.966
		c2.904,4.765,4.358,10.03,4.358,15.792c0,7.433-2.409,13.701-7.217,18.795c-4.811,5.101-12.245,8.339-22.297,9.72
		c3.67,1.766,6.453,3.502,8.361,5.22c4.048,3.715,7.885,8.356,11.505,13.933l18.224,28.514h-17.436l-13.862-21.796
		c-4.053-6.291-7.388-11.101-10.008-14.436c-2.621-3.333-4.964-5.671-7.038-7.005c-2.072-1.33-4.18-2.262-6.326-2.786
		c-1.569-0.331-4.144-0.501-7.714-0.501h-16.083v46.523H219.12z M232.979,282.439h29.802c6.335,0,11.294-0.652,14.864-1.965
		c3.573-1.309,6.29-3.402,8.147-6.288c1.858-2.882,2.788-6.014,2.788-9.398c0-4.953-1.801-9.028-5.397-12.22
		c-3.597-3.188-9.279-4.789-17.041-4.789h-33.164V282.439z"/>
	<path d="M322.687,340.969V236.204h75.75v12.366h-61.885v32.084h57.956v12.293h-57.956v35.659h64.313v12.363H322.687z"/>
	<path d="M418.54,340.969V236.204h70.667v12.366h-56.809v32.443h49.167v12.36h-49.167v47.596H418.54z"/>
	<path d="M493.519,340.969l40.234-104.765h14.934l42.877,104.765h-15.792l-12.218-31.73h-43.808l-11.508,31.73H493.519z
		 M523.748,297.951h35.514l-10.932-29.019c-3.334-8.811-5.813-16.051-7.434-21.723c-1.335,6.718-3.217,13.389-5.645,20.009
		L523.748,297.951z"/>
	<path d="M648.54,302.449v-17.651h45.592v41.735c-4.43,4.286-10.851,8.065-19.259,11.328c-8.407,3.262-16.926,4.893-25.545,4.893
		c-10.961,0-20.513-2.299-28.658-6.895c-8.146-4.597-14.27-11.171-18.366-19.725c-4.1-8.549-6.144-17.853-6.144-27.904
		c0-10.909,2.285-20.603,6.858-29.085c4.573-8.478,11.269-14.985,20.082-19.511c6.717-3.476,15.077-5.216,25.081-5.216
		c13.009,0,23.168,2.726,30.48,8.182c7.314,5.456,12.017,12.996,14.113,22.617l-21.008,3.931c-1.479-5.146-4.254-9.204-8.329-12.186
		c-4.07-2.974-9.159-4.466-15.257-4.466c-9.245,0-16.587,2.931-22.048,8.791c-5.452,5.857-8.178,14.554-8.178,26.085
		c0,12.437,2.761,21.762,8.287,27.976c5.525,6.218,12.767,9.327,21.726,9.327c4.431,0,8.87-0.869,13.327-2.61
		c4.456-1.739,8.276-3.844,11.469-6.323v-13.293H648.54z"/>
	<path d="M710.802,340.969V236.204h21.155v104.765H710.802z"/>
	<path d="M749.914,340.969V236.204h77.677v17.724h-56.522v23.224h52.597v17.651h-52.597v28.513h58.525v17.653H749.914z"/>
	<path d="M845.407,340.969V236.204h44.523c11.194,0,19.328,0.941,24.404,2.826c5.072,1.88,9.133,5.227,12.182,10.038
		c3.046,4.814,4.573,10.316,4.573,16.511c0,7.858-2.313,14.349-6.932,19.471c-4.622,5.121-11.527,8.354-20.723,9.686
		c4.574,2.665,8.348,5.596,11.327,8.788c2.978,3.191,6.989,8.86,12.04,17.008l12.793,20.438h-25.299l-15.293-22.796
		c-5.432-8.147-9.146-13.281-11.146-15.401c-2.002-2.12-4.123-3.572-6.363-4.357c-2.239-0.789-5.784-1.182-10.646-1.182h-4.285
		v43.736H845.407z M866.563,280.511h15.646c10.146,0,16.485-0.427,19.01-1.286c2.523-0.857,4.501-2.333,5.929-4.428
		c1.434-2.1,2.147-4.719,2.147-7.863c0-3.524-0.943-6.372-2.823-8.541c-1.886-2.168-4.538-3.539-7.967-4.11
		c-1.719-0.237-6.861-0.355-15.438-0.355h-16.504V280.511z"/>
</g>
<g>
	<path d="M365.675,405.947v-34.111h4.627l17.918,26.78v-26.78h4.325v34.111h-4.63l-17.913-26.807v26.807H365.675z"/>
	<path d="M400.222,405.947v-34.111h24.663v4.024H404.74v10.444h18.868v4.005H404.74v11.611h20.937v4.026H400.222z"/>
	<path d="M440.593,405.947V375.86h-11.24v-4.024h27.035v4.024h-11.285v30.087H440.593z"/>
	<path d="M466.976,405.947l-9.052-34.111h4.633l5.186,22.359c0.559,2.344,1.04,4.668,1.439,6.979
		c0.876-3.645,1.387-5.745,1.538-6.304l6.496-23.034h5.439l4.889,17.265c1.226,4.279,2.108,8.307,2.653,12.073
		c0.431-2.154,0.996-4.629,1.698-7.421l5.353-21.917h4.535l-9.352,34.111h-4.353l-7.188-25.992
		c-0.605-2.172-0.962-3.506-1.073-4.002c-0.355,1.567-0.688,2.9-1.001,4.002l-7.235,25.992H466.976z"/>
	<path d="M504.62,389.332c0-5.664,1.523-10.095,4.563-13.296c3.04-3.204,6.964-4.806,11.772-4.806c3.149,0,5.988,0.752,8.516,2.256
		c2.529,1.504,4.455,3.605,5.782,6.293c1.323,2.69,1.987,5.743,1.987,9.157c0,3.46-0.697,6.555-2.092,9.285
		c-1.396,2.729-3.375,4.794-5.933,6.198c-2.558,1.406-5.324,2.105-8.285,2.105c-3.209,0-6.078-0.776-8.609-2.324
		c-2.526-1.551-4.44-3.671-5.748-6.354C505.272,395.164,504.62,392.327,504.62,389.332z M509.275,389.399
		c0,4.116,1.104,7.349,3.313,9.715c2.211,2.364,4.982,3.549,8.319,3.549c3.397,0,6.194-1.195,8.387-3.583
		c2.197-2.388,3.291-5.778,3.291-10.168c0-2.773-0.466-5.2-1.406-7.269c-0.938-2.071-2.312-3.679-4.115-4.816
		c-1.81-1.14-3.839-1.711-6.087-1.711c-3.198,0-5.943,1.097-8.246,3.29C510.426,380.602,509.275,384.267,509.275,389.399z"/>
	<path d="M543.128,405.947v-34.111h15.123c3.04,0,5.353,0.304,6.934,0.918c1.582,0.613,2.848,1.697,3.79,3.245
		c0.95,1.551,1.423,3.269,1.423,5.142c0,2.419-0.783,4.462-2.352,6.118c-1.565,1.662-3.985,2.717-7.259,3.166
		c1.193,0.573,2.103,1.142,2.723,1.7c1.318,1.208,2.567,2.721,3.744,4.536l5.934,9.286h-5.678l-4.511-7.1
		c-1.317-2.048-2.407-3.613-3.259-4.699c-0.853-1.088-1.617-1.847-2.292-2.28c-0.675-0.436-1.36-0.734-2.061-0.907
		c-0.512-0.108-1.35-0.163-2.512-0.163h-5.235v15.149H543.128z M547.641,386.889h9.704c2.063,0,3.678-0.212,4.838-0.64
		c1.167-0.43,2.047-1.108,2.653-2.047c0.604-0.939,0.907-1.959,0.907-3.062c0-1.611-0.585-2.939-1.757-3.976
		c-1.172-1.043-3.02-1.56-5.546-1.56h-10.8V386.889z"/>
	<path d="M577.283,405.947v-34.111h4.515v16.915l16.937-16.915h6.124l-14.313,13.822l14.937,20.289h-5.954l-12.146-17.267
		l-5.584,5.442v11.824H577.283z"/>
</g>
<g>
	<line fill="none" stroke="#000000" stroke-width="4" stroke-miterlimit="10" x1="346" y1="392" x2="73" y2="392"/>
	<line fill="none" stroke="#000000" stroke-width="4" stroke-miterlimit="10" x1="898" y1="392" x2="628" y2="392"/>
</g>
<path d="M499.138,136.907L499.138,136.907c0,0-5.438-0.353-5.438-8.083s11.855-4.867,11.855-4.867c0-3.974-6.031-3.547-6.031-3.547
	s-1.425-3.782-6.25-3.782c-10.675,0-15.664,5.466-15.664,5.466c7.769,4.529,3.304,14.57,0.325,14.65
	c-0.569,0.015-1.259,0.089-2.457,0.125c-98.439-0.566-154.453-6.077-154.453-6.077c6.325,7.118,17.042,13.737,31.129,19.479
	l27.915-2.127l-18.32,5.729c14.511,4.999,31.813,9.146,51.067,12.138l11.906-8.553l-5.903,9.44
	c7.349,1.029,14.952,1.895,22.785,2.574c7.083-4.917,34.616-15.203,31.894-10.748c-2.72,4.455-13.951,22.843-13.951,22.843
	l14.017,0.045l8.509-12.95l-2.148,22.297l6.678,11.337l6.965-11.497l-2.276-22.398L499.736,181h13.929
	c0,0-10.463-15.869-13.662-21.848c-3.202-5.98,23.124,5.692,29.647,10.223c7.768-0.673,15.307-1.415,22.597-2.437l-5.771-11.39
	l12.105,10.538c18.712-2.928,35.563-6.946,49.808-11.787l-19.742-6.161l30.16,2.3c14.231-5.792,25.055-12.473,31.422-19.64
	C650.229,130.799,602.655,136.642,499.138,136.907z"/>
</svg>
