<svg xmlns="http://www.w3.org/2000/svg" version="1.1" xmlns:xlink="http://www.w3.org/1999/xlink" xmlns:svgjs="http://svgjs.com/svgjs" width="1920" height="1080" preserveAspectRatio="none" viewBox="0 0 1920 1080"><g mask="url(&quot;#SvgjsMask1000&quot;)" fill="none"><rect width="1920" height="1080" x="0" y="0" fill="rgba(32, 14, 71, 1)"></rect><path d="M0,662.137C122.332,646.977,165.329,485.163,270.937,421.587C381.606,354.964,554.022,393.267,625.434,285.626C695.687,179.731,639.621,35.742,608.688,-87.516C580.279,-200.717,521.263,-298.155,454.844,-394.124C380.761,-501.166,327.708,-657.203,199.36,-678.956C68.36,-701.159,-22.678,-546.315,-145.607,-495.893C-250.945,-452.686,-374.005,-469.911,-467.766,-405.321C-577.381,-329.81,-703.713,-235.484,-716.024,-102.949C-728.363,29.886,-601.788,130.028,-527.805,241.041C-465.697,334.235,-405.373,424.704,-317.828,494.55C-222.27,570.788,-121.316,677.171,0,662.137" fill="#15092e"></path><path d="M1920 1781.117C2048.124 1795.925 2141.607 1662.0030000000002 2241.967 1580.991 2331.942 1508.362 2442.852 1444.4859999999999 2474.726 1333.335 2505.717 1225.26 2436.828 1118.196 2405.6530000000002 1010.174 2379.007 917.845 2352.453 829.8779999999999 2305.268 746.163 2247.442 643.569 2208.637 512.621 2099.824 467.576 1990.287 422.23199999999997 1870.177 489.91099999999994 1755.104 518.416 1634.5520000000001 548.279 1484.684 538.89 1410.335 638.373 1335.7530000000002 738.1659999999999 1409.7350000000001 880.769 1392.121 1004.102 1374.531 1127.265 1252.257 1248.237 1307.3029999999999 1359.81 1362.7069999999999 1472.109 1539.373 1440.761 1642.556 1511.712 1750.971 1586.261 1789.297 1766.011 1920 1781.117" fill="#2b1360"></path></g><defs><mask id="SvgjsMask1000"><rect width="1920" height="1080" fill="#ffffff"></rect></mask></defs></svg>